<svg id="Camada_1" data-name="Camada 1" xmlns="http://www.w3.org/2000/svg" viewBox="0 0 995.16 733.12"><defs><style>.cls-1{fill:#1dd760;}</style></defs><path class="cls-1" d="M1523.84,976.26H887a17.65,17.65,0,1,1,0-35.3H1439a60.37,60.37,0,0,0,60.37-60.38h0A60.37,60.37,0,0,0,1439,820.21H738.17a122,122,0,0,0-122,122v523.63a87.45,87.45,0,0,0,87.45,87.45h820.26a87.45,87.45,0,0,0,87.45-87.45V1063.71A87.45,87.45,0,0,0,1523.84,976.26Zm-248.19,304.07a69.85,69.85,0,0,1-69.85,69.85H821.42a69.85,69.85,0,0,1-69.85-69.85v-60.51A69.85,69.85,0,0,1,821.42,1150H1205.8a69.85,69.85,0,0,1,69.85,69.85Zm256.15,47.77a38.28,38.28,0,0,1-76.55,0V1201.49a38.28,38.28,0,0,1,76.55,0Z" transform="translate(-616.13 -820.21)"/><rect class="cls-1" x="429.3" y="348.83" width="203.33" height="164.46" rx="65.36"/><path class="cls-1" d="M893.55,1231.42a34.68,34.68,0,0,0-11.95-7.36,45.87,45.87,0,0,0-30.22,0,34.82,34.82,0,0,0-12,7.36,33.62,33.62,0,0,0-7.85,11.61,42.57,42.57,0,0,0,0,30.42,33.44,33.44,0,0,0,7.85,11.61,34.52,34.52,0,0,0,12,7.36,45.7,45.7,0,0,0,30.22,0,34.38,34.38,0,0,0,11.95-7.36,33.32,33.32,0,0,0,7.86-11.61,42.57,42.57,0,0,0,0-30.42A33.51,33.51,0,0,0,893.55,1231.42Zm-6.86,35.86a20.73,20.73,0,0,1-4.4,7.11,20,20,0,0,1-6.86,4.69,24.63,24.63,0,0,1-17.88,0,20,20,0,0,1-6.86-4.69,20.58,20.58,0,0,1-4.4-7.11,27.32,27.32,0,0,1,0-18,20.52,20.52,0,0,1,4.4-7.16,20,20,0,0,1,6.86-4.69,24.63,24.63,0,0,1,17.88,0,20,20,0,0,1,6.86,4.69,20.67,20.67,0,0,1,4.4,7.16,27.32,27.32,0,0,1,0,18Z" transform="translate(-616.13 -820.21)"/><path class="cls-1" d="M971.49,1217.35a25.86,25.86,0,0,0-9.73,1.53,13.06,13.06,0,0,0-5.68,4.2,15.08,15.08,0,0,0-2.67,6.17,38.66,38.66,0,0,0-.69,7.46v8.49h-20v-7.6q0-4.74,1.78-6.28a8,8,0,0,1,5.33-1.52,11.56,11.56,0,0,1,2.47.24,18.48,18.48,0,0,1,2.37.74l.69-12.54a29.66,29.66,0,0,0-4.25-.69c-1.45-.14-2.93-.2-4.44-.2a25.86,25.86,0,0,0-9.73,1.53,13.06,13.06,0,0,0-5.68,4.2,15.08,15.08,0,0,0-2.67,6.17,38.66,38.66,0,0,0-.69,7.46v8.49h-9.78v11.86H918v36.15h14.82v-36.15h20v36.15h14.82v-36.15h11V1245.2h-11v-7.6q0-4.74,1.78-6.28a8,8,0,0,1,5.33-1.52,11.56,11.56,0,0,1,2.47.24,18.48,18.48,0,0,1,2.37.74l.69-12.54a29.66,29.66,0,0,0-4.25-.69C974.48,1217.41,973,1217.35,971.49,1217.35Z" transform="translate(-616.13 -820.21)"/></svg>