<svg xmlns="http://www.w3.org/2000/svg" width="27.834" height="17.933" viewBox="0 0 27.834 17.933">
  <path id="Caminho_38" data-name="Caminho 38" d="M2266.785,744.267a5.78,5.78,0,0,1,1.438-4.077,5.688,5.688,0,0,1,3.848-1.755c.069-.5.1-.976.2-1.432a5.743,5.743,0,0,1,2.035-3.169,6.421,6.421,0,0,1,3.669-1.436,1.989,1.989,0,0,1,.463.017.589.589,0,0,1,.127,1.121,1.162,1.162,0,0,1-.4.078,5.066,5.066,0,0,0-4.689,3.644,5.965,5.965,0,0,0-.12,1.4c-.018.778-.171.946-.943.969a4.887,4.887,0,0,0-2.609.78,3.93,3.93,0,0,0-1.677,2.544c-.091.416-.117.847-.176,1.295h4.884a2.886,2.886,0,0,1,.423-1.467,4.094,4.094,0,0,1,2.326-1.834c.079-.025.184-.123.19-.194a3.551,3.551,0,0,1,2.772-3.044,4.912,4.912,0,0,1,.7-.09.6.6,0,1,1,.077,1.2,2.5,2.5,0,0,0-1.9.965,2.011,2.011,0,0,0-.456,1.311c0,.09,0,.18,0,.269a.617.617,0,0,1-.629.688,2.683,2.683,0,0,0-2.109,1.482,4.088,4.088,0,0,0-.223.714H2287.9a10.5,10.5,0,0,0-.218-1.078,3.606,3.606,0,0,0-3.309-2.54c-.236-.011-.473,0-.709-.008a.587.587,0,0,1-.636-.644,5.174,5.174,0,0,0-.177-1.62,3.626,3.626,0,0,0-3.179-2.547c-.113-.011-.228-.014-.341-.032a.621.621,0,0,1-.546-.644.594.594,0,0,1,.635-.552,6.308,6.308,0,0,1,1.461.244,4.749,4.749,0,0,1,3.339,4.277c.011.1.017.192.024.276a4.959,4.959,0,0,1,4.872,4.883h2.341a.6.6,0,0,1,.591.361.55.55,0,0,1-.113.653,1.684,1.684,0,0,1-.308.182c-.18.112-.418.189-.527.351-.467.7-.891,1.419-1.343,2.126s-.9,1.39-1.358,2.084a.7.7,0,0,1-.656.3q-2.69-.007-5.38,0-6.823,0-13.646.006a.905.905,0,0,1-.852-.411c-.506-.806-1.007-1.615-1.512-2.422-.323-.518-.639-1.041-.974-1.552a1.006,1.006,0,0,0-.689-.5.543.543,0,0,1-.413-.633.555.555,0,0,1,.54-.531c.415-.02.831-.01,1.247-.013Zm22.979,1.221h-23.194c.21.346.41.669.6,1q.712,1.2,1.42,2.4a.46.46,0,0,0,.458.237q9.133-.01,18.265,0a.461.461,0,0,0,.459-.233q.994-1.682,2-3.359C2289.776,745.517,2289.77,745.507,2289.764,745.488Z" transform="translate(-2264.278 -732.392)" fill="#fff"/>
</svg>
