<svg xmlns="http://www.w3.org/2000/svg" width="19.374" height="21.75" viewBox="0 0 19.374 21.75">
  <path id="Caminho_114" data-name="Caminho 114" d="M2343.48,802.113a.5.5,0,0,0-.618-.343l-4.877,1.393a.506.506,0,0,0-.321.282l-1.078,2.486h-11.96a.5.5,0,0,0-.5.546l1.524,16.569a.5.5,0,0,0,.5.454h13.131a.5.5,0,0,0,.5-.451l1.629-16.57a.5.5,0,0,0-.5-.548h-3.234l.811-1.871,4.651-1.329A.5.5,0,0,0,2343.48,802.113Zm-7.328,4.818-2.422,5.581a30.732,30.732,0,0,1-8.179-1.48l-.377-4.1Zm2.676,15.569h-12.222l-.955-10.386a29.938,29.938,0,0,0,8.238,1.4c.055,0,.11-.005.165-.005h.006l0,0a8.7,8.7,0,0,0,5.825-1.8Zm1.53-15.569-.316,3.22a.483.483,0,0,0-.236.169c-1.042,1.459-2.914,2.042-4.973,2.166l2.409-5.555Z" transform="translate(-2324.126 -801.75)" fill="#f8f8f8"/>
</svg>
