<svg xmlns="http://www.w3.org/2000/svg" width="22.454" height="19.039" viewBox="0 0 22.454 19.039">
  <g id="JBgcwx.tif" transform="translate(-2266.093 -751.006)">
    <g id="Grupo_237" data-name="Grupo 237" transform="translate(2266.093 751.006)">
      <path id="Caminho_39" data-name="Caminho 39" d="M2288.516,764.14c0,.747.03,1.5-.008,2.243a4.3,4.3,0,0,1-.825,2.413,2.929,2.929,0,0,1-2.126,1.214,6.542,6.542,0,0,1-1.521-.018A3.179,3.179,0,0,1,2282.3,769c-.446-.428-.854-.9-1.333-1.286a3.64,3.64,0,0,0-2.864-.735,18.424,18.424,0,0,0-3.045.858,14.718,14.718,0,0,1-2.744.637,5.007,5.007,0,0,1-3.844-1.183,6.144,6.144,0,0,1-2.016-2.795,5.973,5.973,0,0,1-.342-1.923c-.013-1.345-.049-2.691,0-4.034a7.7,7.7,0,0,1,6.344-7.346,12.983,12.983,0,0,1,5.431.228,15.825,15.825,0,0,1,7.594,4.128,10.16,10.16,0,0,1,2.9,5.431,13.9,13.9,0,0,1,.146,1.865c.022.431,0,.863,0,1.295Zm-13.923-12.106c-.635.069-1.275.106-1.9.212a6.175,6.175,0,0,0-3.23,1.528,6.7,6.7,0,0,0-2.272,5.358,5.1,5.1,0,0,0,3.51,4.693,4.628,4.628,0,0,0,2.494-.048c1.1-.3,2.188-.653,3.283-.977a7.239,7.239,0,0,1,1.982-.391,4.73,4.73,0,0,1,3.2,1.019,12.565,12.565,0,0,1,1.273,1.225,2.6,2.6,0,0,0,2.7.805,2.228,2.228,0,0,0,1.667-1.772,6.2,6.2,0,0,0-.228-3.607,9.884,9.884,0,0,0-3.418-4.74,15,15,0,0,0-4.146-2.31A16.074,16.074,0,0,0,2274.594,752.034ZM2267.2,762.5a.958.958,0,0,0-.017.114,1.258,1.258,0,0,0,0,.129,4.949,4.949,0,0,0,1.512,3.315,4.753,4.753,0,0,0,2,1.231,4.423,4.423,0,0,0,2.346-.021c1.165-.307,2.318-.671,3.471-1.023a6.324,6.324,0,0,1,2.778-.33,4.362,4.362,0,0,1,2.306.933c.494.427.952.9,1.416,1.355a2.472,2.472,0,0,0,1.9.8,2.309,2.309,0,0,0,2-.984,3.325,3.325,0,0,0,.509-1.562c.025-.266.032-.532.048-.837-.172.142-.294.252-.426.35a3.572,3.572,0,0,1-1.919.626,3.17,3.17,0,0,1-2.5-.779c-.5-.46-.972-.96-1.476-1.418a3.658,3.658,0,0,0-2.81-.911,8.625,8.625,0,0,0-2.112.5,21.138,21.138,0,0,1-3.741,1,4.9,4.9,0,0,1-3.757-.969A7.291,7.291,0,0,1,2267.2,762.5Z" transform="translate(-2266.093 -751.006)" fill="#fff"/>
      <path id="Caminho_40" data-name="Caminho 40" d="M2277.078,758.184a.48.48,0,0,1-.584.475c-.7-.128-1.391-.273-2.089-.392-.537-.09-1.079-.149-1.618-.224a.2.2,0,0,0-.223.107,9.913,9.913,0,0,1-1.738,2,.472.472,0,0,1-.675-.011.466.466,0,0,1-.011-.672c.377-.412.771-.806,1.146-1.22a6.79,6.79,0,0,0,.409-.553.785.785,0,0,0,.112-.674,7.79,7.79,0,0,0-.747-1.835.485.485,0,0,1,.307-.744.468.468,0,0,1,.531.245,7.889,7.889,0,0,1,.88,2.222.186.186,0,0,0,.186.177q1.845.3,3.688.609A.483.483,0,0,1,2277.078,758.184Z" transform="translate(-2265.53 -750.52)" fill="#fff"/>
    </g>
  </g>
</svg>
