<svg xmlns="http://www.w3.org/2000/svg" width="20.852" height="23.432" viewBox="0 0 20.852 23.432">
  <g id="Ed8yro.tif" transform="translate(-2268.148 -801.582)">
    <g id="Grupo_238" data-name="Grupo 238">
      <path id="Caminho_41" data-name="Caminho 41" d="M2285.948,813.446a3.332,3.332,0,0,1,.716,2.8c-.348-.03-.685-.071-1.023-.085a7.607,7.607,0,0,0-3.062.422,3.232,3.232,0,0,0-2.237,3.233,7.813,7.813,0,0,0,.471,2.644,1.68,1.68,0,0,1-.257,1.807,2.273,2.273,0,0,1-1.645.739,2.318,2.318,0,0,1-1.157-.265c-.594-.294-1.2-.554-1.794-.856a8.685,8.685,0,0,1-3.762-3.646.5.5,0,0,0-.394-.293,2.633,2.633,0,0,1-2.175-2.711.6.6,0,0,0-.21-.531,3.943,3.943,0,0,1-1.261-3.152,2.689,2.689,0,0,1,1.188-2.1l-.086-.168a4.18,4.18,0,0,1-.421-3.232,2.552,2.552,0,0,1,.882-1.323.2.2,0,0,0,.08-.263,3.742,3.742,0,0,1,.006-2.435,2.05,2.05,0,0,1,2.809-1.287c.042.016.086.029.08.027a6.26,6.26,0,0,1,.722-.8,1.779,1.779,0,0,1,2.1-.1,3.362,3.362,0,0,1,1.389,1.566c.02.041.038.083.084.182a.785.785,0,0,0,.12-.188,2.33,2.33,0,0,1,2.332-1.852,2.423,2.423,0,0,1,1.091.3.3.3,0,0,0,.24.006,2.126,2.126,0,0,1,3.21,1.493.182.182,0,0,0,.17.174,3.074,3.074,0,0,1,2.469,2.384.337.337,0,0,0,.2.256,3.742,3.742,0,0,1,2.162,3.227,3.913,3.913,0,0,1-2.857,3.963C2286.078,813.4,2286.024,813.422,2285.948,813.446Zm-12.533-2.056-.249.207a1.7,1.7,0,0,0-.458,2.1,1.66,1.66,0,0,0,1.047.866.21.21,0,0,1,.179.264,6.663,6.663,0,0,0-.006.749,9.57,9.57,0,0,0,.761,3.679,17.466,17.466,0,0,0,3.17,4.557,1.186,1.186,0,0,0,.93.377c-.021-.065-.032-.109-.049-.151a25.935,25.935,0,0,1-1.411-4.748c-.023-.121-.088-.157-.185-.193a2.828,2.828,0,0,1-1.418-1.14.627.627,0,0,1-.1-.348.352.352,0,0,1,.3-.326.385.385,0,0,1,.443.177,2.074,2.074,0,0,0,.783.739,13.8,13.8,0,0,1,.472-6.236,2.849,2.849,0,0,1-1.039-1.063,3.128,3.128,0,0,1-.38-2.014.387.387,0,0,1,.377-.34.4.4,0,0,1,.4.284.969.969,0,0,1,.009.274,2.315,2.315,0,0,0,.4,1.551,6.212,6.212,0,0,0,.511.551c.054-.115.083-.174.111-.233a9.038,9.038,0,0,1,3.159-3.775.326.326,0,0,0,.111-.222,2.777,2.777,0,0,1,.544-1.374.4.4,0,1,1,.657.469,1.532,1.532,0,0,0-.094.149c-.089.189-.174.38-.274.6a3.408,3.408,0,0,1,1.857.426.4.4,0,0,1,.208.562.42.42,0,0,1-.592.158,5.234,5.234,0,0,0-.619-.251,1.461,1.461,0,0,0-1.435.221c-.368.3-.731.6-1.094.9a.793.793,0,0,0-.1.125h.224a6.4,6.4,0,0,1,2.4.363.683.683,0,0,1,.321.262.347.347,0,0,1-.076.434.415.415,0,0,1-.473.088,6.031,6.031,0,0,0-3.012-.237.446.446,0,0,0-.326.213,9.209,9.209,0,0,0-1.221,2.715c-.118.441-.2.891-.314,1.378.087-.042.122-.057.155-.076a4.585,4.585,0,0,1,1.943-.522.412.412,0,0,1,.482.381.422.422,0,0,1-.433.437c-.157.014-.315.022-.47.048a2.845,2.845,0,0,0-1.471.612.7.7,0,0,0-.3.586c.042.688.034,1.38.107,2.065a21.6,21.6,0,0,0,1.179,4.908c.163.462.345.916.519,1.375a.831.831,0,0,0,.5-1.124,9.861,9.861,0,0,1-.554-2.929,4.047,4.047,0,0,1,2.713-4.087,8.313,8.313,0,0,1,3.326-.506c.1,0,.2,0,.316,0a2.1,2.1,0,0,0-.414-1.194,1.831,1.831,0,0,0-1.573-.55c.015-.289.026-.556.047-.822a.145.145,0,0,1,.092-.1,1.623,1.623,0,0,1,.483-.036,3.04,3.04,0,0,0,1.7-5.815c-.206-.078-.326-.155-.346-.409a2.243,2.243,0,0,0-2.134-2.091c-.188-.012-.377,0-.589,0,.134-.775.04-1.441-.714-1.795a1.372,1.372,0,0,0-1.74.519c-.107-.093-.2-.176-.295-.257a1.443,1.443,0,0,0-1.632-.251,1.427,1.427,0,0,0-.867,1.385c0,.122,0,.244,0,.376a2.234,2.234,0,0,0-1.935.926,2.286,2.286,0,0,0-.189,2.157,2.547,2.547,0,0,0-2.525,1.234A2.462,2.462,0,0,0,2273.415,811.39Zm-2.57-4.366a.444.444,0,0,1-.074.042,1.96,1.96,0,0,0-1.263,1.933,3.727,3.727,0,0,0,.76,2.355c.1.141.2.28.314.431-.181.076-.338.141-.5.208a1.766,1.766,0,0,0-1.031,1.171,2.478,2.478,0,0,0,0,1.379,3.468,3.468,0,0,0,1.293,1.9c.281.216.267.209.168.536a1.577,1.577,0,0,0-.074.6,1.89,1.89,0,0,0,1.816,1.609.393.393,0,0,1,.432.269,1.166,1.166,0,0,0,.053.1,8.017,8.017,0,0,0,2.3,2.793c.324.239.668.452,1,.678l.033-.042c-.185-.243-.369-.487-.556-.728a10.868,10.868,0,0,1-2.421-6.948c0-.127-.065-.166-.153-.218a2.506,2.506,0,0,1-.675-3.766.226.226,0,0,0,.043-.263,3.027,3.027,0,0,1-.234-1.308,3.244,3.244,0,0,1,2.545-3.092c.1-.027.141-.065.141-.186a2.808,2.808,0,0,1,.731-1.983c.211-.229.462-.421.7-.633a2.615,2.615,0,0,0-1.052-1.271,1.068,1.068,0,0,0-1.557.4,4.039,4.039,0,0,0-.255.636c-.048.13-.081.266-.119.394a8.855,8.855,0,0,0-.854-.494,1.25,1.25,0,0,0-1.78.767,2.537,2.537,0,0,0-.1,1.473C2270.565,806.19,2270.716,806.6,2270.845,807.024Z" fill="#fff"/>
    </g>
  </g>
</svg>
