<svg xmlns="http://www.w3.org/2000/svg" width="16.83" height="23.885" viewBox="0 0 16.83 23.885">
  <path id="Caminho_113" data-name="Caminho 113" d="M2309.092,820.163a1.822,1.822,0,0,0,.246,1,2.088,2.088,0,0,0,1.744,1.111c.5.038.646.2.646.7,0,.446,0,.891,0,1.337,0,.42-.2.619-.612.619h-7.776a.548.548,0,0,1-.614-.623c0-.446,0-.891,0-1.337,0-.5.157-.663.657-.7a2.026,2.026,0,0,0,1.713-1.078,6.458,6.458,0,0,0,.359-1.029h-2.1a2.672,2.672,0,0,1-2.776-2.414q-.52-3.489-1.062-6.975a1.636,1.636,0,0,1,.946-1.868c.1-.042.211-.065.328-.1a3.448,3.448,0,0,1-.123-.576,2.884,2.884,0,0,1,.049-.723.483.483,0,0,0-.082-.408q-1.077-1.582-2.144-3.173a1.784,1.784,0,0,1-.012-2.032,1.849,1.849,0,0,1,3.11.008c.454.678.9,1.359,1.345,2.021a5.757,5.757,0,0,1,.977-.368,13.444,13.444,0,0,1,1.5-.144,2.635,2.635,0,0,0,1.52-.493.854.854,0,0,0,.353-1.011.985.985,0,0,1-.008-.457.451.451,0,0,1,.6-.313,8.39,8.39,0,0,1,1.294.469,4.533,4.533,0,0,1,2.077,1.789,2.868,2.868,0,0,1,.257,2.625.782.782,0,0,0-.023.117,2.09,2.09,0,0,1,1.922.655,1.863,1.863,0,0,1,.257,2.006c.112.031.218.053.319.091a1.575,1.575,0,0,1,.993,1.706q-.561,3.653-1.131,7.3a2.643,2.643,0,0,1-2.655,2.266c-.624,0-1.247,0-1.871,0Zm-8.232-7.658a.242.242,0,0,0,0,.057c.264,1.692.533,3.383.792,5.076a1.585,1.585,0,0,0,1.687,1.462c2.6,0,5.2-.011,7.8.007a1.668,1.668,0,0,0,1.709-1.505c.148-1.1.342-2.2.514-3.3.094-.6.183-1.2.276-1.8Zm12.933-1.084c.044-.262.082-.5.126-.743.11-.606-.09-.846-.709-.846h-11.94a1.729,1.729,0,0,0-.288.013.515.515,0,0,0-.445.484c.029.366.1.729.148,1.092Zm-6.533-4.226h-1.537c-1.077,0-2.154,0-3.23,0a.773.773,0,0,0-.752,1.027c.119.377.4.551.889.551h9.244a2.167,2.167,0,0,0,.267-.012A.788.788,0,0,0,2312,807.2C2310.423,807.193,2308.841,807.2,2307.26,807.2Zm1.158-4.775a5.252,5.252,0,0,1-.293.723,2.649,2.649,0,0,1-1.182,1.013,4.539,4.539,0,0,1-1.691.326,5.734,5.734,0,0,0-1.378.19c-.651.214-.771.71-.369,1.3a.361.361,0,0,0,.339.159q2.893-.006,5.788,0a.96.96,0,0,0,.97-.749,1.774,1.774,0,0,0-.2-1.311A3.915,3.915,0,0,0,2308.418,802.42Zm-1.952,17.781a3.2,3.2,0,0,1-.758,2.039,3.148,3.148,0,0,1-1.868,1.076v.569h6.855a1.553,1.553,0,0,1,0-.275c.043-.231-.059-.31-.277-.369a3.016,3.016,0,0,1-2.095-1.8,9.892,9.892,0,0,1-.343-1.236Zm-4.118-14.056a2.156,2.156,0,0,1-.07-1.181.254.254,0,0,0-.046-.18q-.783-1.176-1.575-2.345a.762.762,0,0,0-.65-.327.724.724,0,0,0-.666.373.782.782,0,0,0,.048.881q1,1.5,2,3a.734.734,0,0,0,.066.081Z" transform="translate(-2298.17 -801.047)" fill="#f8f8f8"/>
</svg>
