<svg id="Layer_2" data-name="Layer 2" xmlns="http://www.w3.org/2000/svg" width="189.501" height="133.871" viewBox="0 0 189.501 133.871">
  <g id="Camada_1" data-name="Camada 1" transform="translate(0 0)">
    <path id="Caminho_112" data-name="Caminho 112" d="M344.068,82.218a17.558,17.558,0,0,1-9.938-3.1L313.453,64.963A17.584,17.584,0,0,1,305.8,50.449V4.571a4.581,4.581,0,0,1,4.581-4.579h33.665a4.58,4.58,0,1,1,0,9.161H314.96v41.3a8.43,8.43,0,0,0,3.668,6.956L339.3,71.563a8.38,8.38,0,0,0,9.506.013l20.839-14.181a8.422,8.422,0,0,0,3.688-6.969V4.571a4.58,4.58,0,1,1,9.161,0V50.425a17.573,17.573,0,0,1-7.69,14.541L353.969,79.149A17.571,17.571,0,0,1,344.068,82.218Z" transform="translate(-249.405 0.01)" fill="#00e26e"/>
    <path id="Caminho_113" data-name="Caminho 113" d="M584.489,73.985a4.579,4.579,0,0,1-4.579-4.579V52.741a4.58,4.58,0,1,1,9.161,0V69.4a4.579,4.579,0,0,1-4.581,4.583Z" transform="translate(-472.966 -39.277)" fill="#00e26e"/>
    <path id="Caminho_114" data-name="Caminho 114" d="M492.931,124.6a4.581,4.581,0,0,1-4.581-4.573V103.361a4.58,4.58,0,1,1,9.161,0v16.667A4.579,4.579,0,0,1,492.931,124.6Z" transform="translate(-398.291 -80.562)" fill="#00e26e"/>
    <path id="Caminho_115" data-name="Caminho 115" d="M402.581,173.983A4.581,4.581,0,0,1,398,169.4V152.741a4.58,4.58,0,1,1,9.161,0V169.4A4.579,4.579,0,0,1,402.581,173.983Z" transform="translate(-324.602 -120.835)" fill="#00e26e"/>
    <path id="Caminho_116" data-name="Caminho 116" d="M25.055,535.951a1.732,1.732,0,0,1,2.951,1.224v10.493a3.411,3.411,0,0,1-.992,2.488,3.319,3.319,0,0,1-2.471,1.011,3.558,3.558,0,0,1-1.864-.54L6.16,540.526c-.456-.264-.835-.474-1.134-.631a1.72,1.72,0,0,0-.738-.236c-.369,0-.59.23-.686.686a10.326,10.326,0,0,0-.144,1.984v7.1a1.66,1.66,0,0,1-.513,1.237,1.66,1.66,0,0,1-1.226.505A1.659,1.659,0,0,1,.5,550.669,1.66,1.66,0,0,1,0,549.435V538.944a3.412,3.412,0,0,1,.992-2.49,3.32,3.32,0,0,1,2.469-1.009,3.558,3.558,0,0,1,1.875.54l16.514,10.1c.456.266.835.476,1.136.631a1.7,1.7,0,0,0,.738.234q.54,0,.684-.684a10.326,10.326,0,0,0,.144-1.984v-7.1a1.66,1.66,0,0,1,.507-1.224Z" transform="translate(0.006 -436.699)" fill="#00e26e"/>
    <path id="Caminho_117" data-name="Caminho 117" d="M229.54,538.907a3.981,3.981,0,0,0-2.029.45,3.77,3.77,0,0,0-1.226,1.107,3.855,3.855,0,0,0-.612,1.424,6.334,6.334,0,0,0,0,2.849,3.873,3.873,0,0,0,.612,1.424,3.725,3.725,0,0,0,1.226,1.107,3.976,3.976,0,0,0,2.029.452h19.867a1.732,1.732,0,1,1,0,3.461H228.384a4.851,4.851,0,0,1-2.632-.721,6.85,6.85,0,0,1-1.966-1.857,8.774,8.774,0,0,1-1.243-2.543,9.248,9.248,0,0,1-.433-2.739,8.885,8.885,0,0,1,.45-2.766,8.429,8.429,0,0,1,1.317-2.525,7.192,7.192,0,0,1,2.086-1.863,5.367,5.367,0,0,1,2.777-.721h20.654a1.732,1.732,0,1,1,0,3.461Zm19.579,3.174a1.732,1.732,0,0,1-1.226,2.951H229.936a1.732,1.732,0,1,1,0-3.461h17.956A1.66,1.66,0,0,1,249.119,542.081Z" transform="translate(-181.149 -436.7)" fill="#00e26e"/>
    <path id="Caminho_118" data-name="Caminho 118" d="M457.14,538.932a4.039,4.039,0,0,0-2.038.45,3.764,3.764,0,0,0-1.224,1.107,3.831,3.831,0,0,0-.614,1.424,6.334,6.334,0,0,0,0,2.849,3.843,3.843,0,0,0,.614,1.424,3.717,3.717,0,0,0,1.224,1.106,4,4,0,0,0,2.038.452h19.867a1.732,1.732,0,1,1,0,3.461H455.984a4.856,4.856,0,0,1-2.632-.721,6.9,6.9,0,0,1-1.966-1.857,8.778,8.778,0,0,1-1.243-2.543,9.251,9.251,0,0,1-.433-2.739,8.836,8.836,0,0,1,.452-2.766,8.383,8.383,0,0,1,1.315-2.525,7.193,7.193,0,0,1,2.091-1.857,5.366,5.366,0,0,1,2.777-.721H477a1.732,1.732,0,1,1,0,3.461Zm19.579,3.174a1.732,1.732,0,0,1-1.226,2.951H457.535a1.732,1.732,0,1,1,0-3.461h17.956a1.66,1.66,0,0,1,1.226.511Z" transform="translate(-366.776 -436.724)" fill="#00e26e"/>
    <path id="Caminho_119" data-name="Caminho 119" d="M700.028,536.126a1.721,1.721,0,0,1,3.065,1.081,1.5,1.5,0,0,1-.36,1.047l-.037.035-8.726,11.754a4.994,4.994,0,0,1-1.639,1.352,4.511,4.511,0,0,1-2.145.524,4.61,4.61,0,0,1-3.642-1.778l-8.771-11.714a2.443,2.443,0,0,1-.359-.553,1.541,1.541,0,0,1-.144-.668,1.722,1.722,0,0,1,1.73-1.73,1.615,1.615,0,0,1,1.37.684l8.409,11.214a7.226,7.226,0,0,0,.631.631,1.047,1.047,0,0,0,1.551,0,4.406,4.406,0,0,0,.594-.631Z" transform="translate(-552.371 -436.725)" fill="#00e26e"/>
    <path id="Caminho_120" data-name="Caminho 120" d="M890.56,547.333a1.721,1.721,0,0,1-3.065-1.083,1.5,1.5,0,0,1,.369-1.046l8.76-11.79a4.773,4.773,0,0,1,3.788-1.875,4.686,4.686,0,0,1,2.054.468,4.2,4.2,0,0,1,1.586,1.291l8.763,11.719a2.453,2.453,0,0,1,.369.553,1.541,1.541,0,0,1,.144.666,1.722,1.722,0,0,1-1.73,1.732,1.61,1.61,0,0,1-1.37-.686l-8.4-11.212a7.5,7.5,0,0,0-.631-.633,1.051,1.051,0,0,0-1.551,0,4.646,4.646,0,0,0-.6.633Zm7.607-3.246a2.213,2.213,0,1,1,.649,1.588A2.161,2.161,0,0,1,898.167,544.087Z" transform="translate(-723.827 -433.515)" fill="#00e26e"/>
    <path id="Caminho_121" data-name="Caminho 121" d="M217.94,686.254a.8.8,0,0,1,1.37.568v2.838a3.108,3.108,0,0,0,.076.658,1.8,1.8,0,0,0,.282.66,1.735,1.735,0,0,0,.568.509,1.859,1.859,0,0,0,.944.208h3.873a3.9,3.9,0,0,1-.4-.992,4.166,4.166,0,0,1-.135-1.044v-2.838a.8.8,0,1,1,1.6,0v2.838a3.137,3.137,0,0,0,.076.651,2.074,2.074,0,0,0,.267.66,1.578,1.578,0,0,0,.535.516,1.647,1.647,0,0,0,.876.208h1.586a1.867,1.867,0,0,0,.935-.208,1.689,1.689,0,0,0,.575-.509,1.769,1.769,0,0,0,.284-.66,3.235,3.235,0,0,0,.076-.658v-2.838a.8.8,0,1,1,1.6,0v2.838a4.136,4.136,0,0,1-.208,1.276,3.943,3.943,0,0,1-.609,1.169,3.3,3.3,0,0,1-.97.859,2.482,2.482,0,0,1-1.291.336H220.6a2.246,2.246,0,0,1-1.219-.336,3.149,3.149,0,0,1-.909-.859,4.089,4.089,0,0,1-.577-1.177,4.326,4.326,0,0,1-.2-1.269v-2.838A.776.776,0,0,1,217.94,686.254Z" transform="translate(-177.552 -559.475)" fill="#00e26e"/>
    <path id="Caminho_122" data-name="Caminho 122" d="M334.176,691.654a.795.795,0,0,1-1.186.066.771.771,0,0,1-.234-.568.69.69,0,0,1,.168-.485l4.057-5.459a2.111,2.111,0,0,1,.751-.625,2.139,2.139,0,0,1,1-.243,2.179,2.179,0,0,1,.952.218,1.942,1.942,0,0,1,.738.6l4.057,5.425a1.091,1.091,0,0,1,.168.258.737.737,0,0,1,.066.31.8.8,0,0,1-.8.8.738.738,0,0,1-.634-.319l-3.891-5.191a3.883,3.883,0,0,0-.291-.293.487.487,0,0,0-.719,0,2.246,2.246,0,0,0-.275.293Z" transform="translate(-271.39 -558.137)" fill="#00e26e"/>
    <path id="Caminho_123" data-name="Caminho 123" d="M431.483,693.294a2.292,2.292,0,0,1-1.219-1.177,2.045,2.045,0,0,1-.184-.869v-4.256a.8.8,0,0,1,.8-.8.788.788,0,0,1,.553.234.763.763,0,0,1,.242.568v4.256a.586.586,0,0,0,.184.435.627.627,0,0,0,.443.184h10.017a.8.8,0,1,1,0,1.6h-9.958A2.228,2.228,0,0,1,431.483,693.294Z" transform="translate(-350.766 -559.646)" fill="#00e26e"/>
    <path id="Caminho_124" data-name="Caminho 124" d="M534.793,693.294a2.3,2.3,0,0,1-.727-.476,2.338,2.338,0,0,1-.492-.7,2.072,2.072,0,0,1-.184-.869v-4.256a.8.8,0,0,1,.8-.8.789.789,0,0,1,.553.234.763.763,0,0,1,.242.568v4.256a.579.579,0,0,0,.184.435.621.621,0,0,0,.443.184h10.017a.8.8,0,1,1,0,1.6h-9.955A2.242,2.242,0,0,1,534.793,693.294Z" transform="translate(-435.024 -559.646)" fill="#00e26e"/>
    <path id="Caminho_125" data-name="Caminho 125" d="M640.109,687.788a1.843,1.843,0,0,0-.942.21,1.714,1.714,0,0,0-.568.509,1.762,1.762,0,0,0-.284.658,2.911,2.911,0,0,0,0,1.318,1.771,1.771,0,0,0,.284.66,1.718,1.718,0,0,0,.568.509,1.844,1.844,0,0,0,.942.208h9.2a.8.8,0,0,1,0,1.6h-9.733a2.245,2.245,0,0,1-1.217-.336,3.159,3.159,0,0,1-.911-.859,4.039,4.039,0,0,1-.575-1.177,4.332,4.332,0,0,1-.2-1.269,4.153,4.153,0,0,1,.208-1.278,3.918,3.918,0,0,1,.61-1.167,3.315,3.315,0,0,1,.968-.861,2.5,2.5,0,0,1,1.291-.334h9.56a.8.8,0,1,1,0,1.6Zm9.066,1.475a.8.8,0,0,1-.568,1.368h-8.313a.8.8,0,1,1,0-1.6h8.313a.779.779,0,0,1,.568.229Z" transform="translate(-519.258 -559.641)" fill="#00e26e"/>
    <path id="Caminho_126" data-name="Caminho 126" d="M754.167,686.186a.8.8,0,0,1,.8.8.754.754,0,0,1-.218.542.818.818,0,0,1-.518.258h-3.354a1.726,1.726,0,0,0-.826.243,1.586,1.586,0,0,0-.511.516,1.923,1.923,0,0,0-.249.651,3.441,3.441,0,0,0-.068.634v2.838a.8.8,0,1,1-1.6,0v-2.846a4.17,4.17,0,0,1,.135-1.044,3.911,3.911,0,0,1,.4-.994h-5.475a.8.8,0,1,1,0-1.6Z" transform="translate(-605.035 -559.641)" fill="#00e26e"/>
    <rect id="Ret창ngulo_63" data-name="Ret창ngulo 63" width="29.536" height="0.682" transform="translate(0.001 129.676)" fill="#00e26e"/>
    <rect id="Ret창ngulo_64" data-name="Ret창ngulo 64" width="29.536" height="0.682" transform="translate(159.908 129.676)" fill="#00e26e"/>
  </g>
</svg>
