<svg id="Layer_2" data-name="Layer 2" xmlns="http://www.w3.org/2000/svg" width="187.542" height="34.563" viewBox="0 0 187.542 34.563">
  <g id="Camada_1" data-name="Camada 1">
    <path id="Caminho_69" data-name="Caminho 69" d="M16.085,34.563a7.38,7.38,0,0,1-4.177-1.3L3.217,27.309A7.39,7.39,0,0,1,0,21.209V1.924A1.924,1.924,0,0,1,1.924,0H16.075a1.924,1.924,0,0,1,0,3.849H3.849V21.208a3.541,3.541,0,0,0,1.54,2.923l8.691,5.952a3.524,3.524,0,0,0,4,.006l8.756-5.961A3.54,3.54,0,0,0,28.386,21.2V1.924a1.924,1.924,0,1,1,3.849,0V21.2A7.388,7.388,0,0,1,29,27.312l-8.756,5.96A7.377,7.377,0,0,1,16.085,34.563Z" transform="translate(0 0)" fill="#00e26e"/>
    <path id="Caminho_70" data-name="Caminho 70" d="M222.735,49.673a1.925,1.925,0,0,1-1.925-1.924v-7a1.924,1.924,0,1,1,3.849,0v7A1.924,1.924,0,0,1,222.735,49.673Z" transform="translate(-199.563 -35.085)" fill="#00e26e"/>
    <path id="Caminho_71" data-name="Caminho 71" d="M148.984,90.433a1.924,1.924,0,0,1-1.924-1.924v-7a1.924,1.924,0,1,1,3.849,0v7A1.924,1.924,0,0,1,148.984,90.433Z" transform="translate(-132.909 -71.922)" fill="#00e26e"/>
    <path id="Caminho_72" data-name="Caminho 72" d="M76.2,130.222A1.924,1.924,0,0,1,74.28,128.3v-7a1.924,1.924,0,0,1,3.849,0v7A1.924,1.924,0,0,1,76.2,130.222Z" transform="translate(-67.132 -107.884)" fill="#00e26e"/>
    <path id="Caminho_73" data-name="Caminho 73" d="M476.156,52.245a1.347,1.347,0,0,1,2.295.952v8.144a2.651,2.651,0,0,1-.77,1.932,2.58,2.58,0,0,1-1.918.783,2.761,2.761,0,0,1-1.455-.42L461.488,55.8q-.531-.307-.881-.49a1.33,1.33,0,0,0-.577-.182c-.28,0-.458.177-.532.532a7.943,7.943,0,0,0-.112,1.54v5.515a1.347,1.347,0,1,1-2.688,0V54.568a2.65,2.65,0,0,1,.77-1.931,2.578,2.578,0,0,1,1.918-.784,2.767,2.767,0,0,1,1.455.421l12.82,7.838q.531.307.881.49a1.326,1.326,0,0,0,.577.182q.42,0,.532-.532a8.028,8.028,0,0,0,.112-1.54V53.2A1.293,1.293,0,0,1,476.156,52.245Z" transform="translate(-412.749 -46.862)" fill="#00e26e"/>
    <path id="Caminho_74" data-name="Caminho 74" d="M793.013,54.507a3.128,3.128,0,0,0-1.582.35,2.922,2.922,0,0,0-.952.854A3,3,0,0,0,790,56.816a4.908,4.908,0,0,0,0,2.211,3,3,0,0,0,.475,1.106,2.922,2.922,0,0,0,.952.854,3.111,3.111,0,0,0,1.582.35h15.423a1.347,1.347,0,1,1,0,2.687H792.117a3.771,3.771,0,0,1-2.043-.56,5.331,5.331,0,0,1-1.526-1.443,6.808,6.808,0,0,1-.962-1.973,7.215,7.215,0,0,1-.336-2.128,6.918,6.918,0,0,1,.346-2.142,6.569,6.569,0,0,1,1.022-1.959,5.58,5.58,0,0,1,1.623-1.443,4.178,4.178,0,0,1,2.155-.56h16.039a1.347,1.347,0,1,1,0,2.694Zm15.2,2.463a1.347,1.347,0,0,1-.952,2.295H793.321a1.347,1.347,0,1,1,0-2.688H807.26a1.3,1.3,0,0,1,.952.393Z" transform="translate(-711.497 -46.829)" fill="#00e26e"/>
    <path id="Caminho_75" data-name="Caminho 75" d="M1131.6,54.507a3.127,3.127,0,0,0-1.582.35,2.915,2.915,0,0,0-.952.854,3,3,0,0,0-.475,1.106,4.906,4.906,0,0,0,0,2.213,3,3,0,0,0,.475,1.106,2.915,2.915,0,0,0,.952.854,3.114,3.114,0,0,0,1.582.35h15.422a1.347,1.347,0,1,1,0,2.687h-16.318a3.779,3.779,0,0,1-2.044-.56,5.328,5.328,0,0,1-1.525-1.443,6.814,6.814,0,0,1-.962-1.973,7.211,7.211,0,0,1-.336-2.128,6.886,6.886,0,0,1,.346-2.144,6.549,6.549,0,0,1,1.022-1.959,5.563,5.563,0,0,1,1.623-1.443,4.179,4.179,0,0,1,2.156-.56h16.038a1.347,1.347,0,1,1,0,2.694Zm15.2,2.463a1.347,1.347,0,0,1-.952,2.295h-13.944a1.347,1.347,0,1,1,0-2.688h13.939a1.3,1.3,0,0,1,.951.393Z" transform="translate(-1017.506 -46.829)" fill="#00e26e"/>
    <path id="Caminho_76" data-name="Caminho 76" d="M1482.06,52.368a1.336,1.336,0,0,1,2.38.84,1.154,1.154,0,0,1-.28.811l-.028.028-6.773,9.125a3.893,3.893,0,0,1-1.274,1.05,3.6,3.6,0,0,1-4.493-.962l-6.8-9.1a1.911,1.911,0,0,1-.28-.434,1.194,1.194,0,0,1-.112-.518,1.338,1.338,0,0,1,1.347-1.347,1.251,1.251,0,0,1,1.063.532l6.522,8.705a5.878,5.878,0,0,0,.49.49.815.815,0,0,0,1.2,0,3.654,3.654,0,0,0,.462-.49Z" transform="translate(-1323.487 -46.873)" fill="#00e26e"/>
    <path id="Caminho_77" data-name="Caminho 77" d="M1743.1,58.309a1.335,1.335,0,0,1-2.379-.839,1.155,1.155,0,0,1,.28-.812l6.8-9.153a3.708,3.708,0,0,1,2.939-1.455,3.631,3.631,0,0,1,1.6.364,3.26,3.26,0,0,1,1.231,1.007l6.8,9.1a1.942,1.942,0,0,1,.28.434,1.209,1.209,0,0,1,.112.518,1.338,1.338,0,0,1-1.347,1.347,1.25,1.25,0,0,1-1.064-.532l-6.518-8.708a6.149,6.149,0,0,0-.49-.49.813.813,0,0,0-1.2,0,3.531,3.531,0,0,0-.462.49ZM1749,55.79a1.721,1.721,0,1,1,.5,1.232A1.673,1.673,0,0,1,1749,55.79Z" transform="translate(-1573.215 -41.619)" fill="#00e26e"/>
    <path id="Caminho_78" data-name="Caminho 78" d="M772.746,255.54a.608.608,0,0,1,1.038.431v2.152a2.5,2.5,0,0,0,.057.5,1.36,1.36,0,0,0,.216.5,1.332,1.332,0,0,0,.43.385,1.423,1.423,0,0,0,.716.158h2.937a2.956,2.956,0,0,1-.3-.753,3.211,3.211,0,0,1-.1-.791v-2.15a.608.608,0,1,1,1.215,0v2.152a2.333,2.333,0,0,0,.057.494,1.542,1.542,0,0,0,.2.5,1.21,1.21,0,0,0,.405.393,1.268,1.268,0,0,0,.665.158h1.2a1.426,1.426,0,0,0,.708-.158,1.3,1.3,0,0,0,.437-.385,1.36,1.36,0,0,0,.215-.5,2.491,2.491,0,0,0,.057-.5v-2.154a.608.608,0,1,1,1.215,0v2.152a3.137,3.137,0,0,1-.158.969,2.956,2.956,0,0,1-.463.885,2.5,2.5,0,0,1-.734.652,1.89,1.89,0,0,1-.979.258h-7.013a1.712,1.712,0,0,1-.924-.253,2.4,2.4,0,0,1-.69-.652,3.082,3.082,0,0,1-.437-.892,3.271,3.271,0,0,1-.152-.962v-2.156A.59.59,0,0,1,772.746,255.54Z" transform="translate(-698.229 -230.768)" fill="#00e26e"/>
    <path id="Caminho_79" data-name="Caminho 79" d="M940.89,258.541a.6.6,0,0,1-1.076-.379.526.526,0,0,1,.126-.368l3.079-4.138a1.681,1.681,0,0,1,1.322-.656,1.645,1.645,0,0,1,.722.165,1.472,1.472,0,0,1,.557.456l3.079,4.114a.914.914,0,0,1,.126.192.548.548,0,0,1,.051.235.6.6,0,0,1-.607.607.564.564,0,0,1-.481-.241l-2.953-3.937a2.83,2.83,0,0,0-.221-.222.369.369,0,0,0-.545,0,1.709,1.709,0,0,0-.209.222Z" transform="translate(-849.38 -228.655)" fill="#00e26e"/>
    <path id="Caminho_80" data-name="Caminho 80" d="M1082.263,260.977a1.732,1.732,0,0,1-.925-.893,1.564,1.564,0,0,1-.139-.658V256.2a.6.6,0,0,1,.607-.608.6.6,0,0,1,.424.177.578.578,0,0,1,.184.431v3.227a.439.439,0,0,0,.145.329.47.47,0,0,0,.336.14h7.595a.608.608,0,1,1,0,1.215h-7.557A1.711,1.711,0,0,1,1082.263,260.977Z" transform="translate(-977.161 -230.996)" fill="#00e26e"/>
    <path id="Caminho_81" data-name="Caminho 81" d="M1232.363,260.977a1.737,1.737,0,0,1-.924-.893,1.549,1.549,0,0,1-.139-.658V256.2a.6.6,0,0,1,.607-.608.6.6,0,0,1,.424.177.577.577,0,0,1,.184.431v3.227a.439.439,0,0,0,.145.329.47.47,0,0,0,.336.14h7.6a.608.608,0,1,1,0,1.215h-7.558A1.71,1.71,0,0,1,1232.363,260.977Z" transform="translate(-1112.818 -230.996)" fill="#00e26e"/>
    <path id="Caminho_82" data-name="Caminho 82" d="M1384.016,256.774a1.408,1.408,0,0,0-.715.159,1.3,1.3,0,0,0-.43.385,1.341,1.341,0,0,0-.215.5,2.23,2.23,0,0,0,0,1,1.346,1.346,0,0,0,.215.5,1.316,1.316,0,0,0,.43.385,1.418,1.418,0,0,0,.715.158h6.976a.608.608,0,1,1,0,1.215h-7.38a1.707,1.707,0,0,1-.924-.253,2.393,2.393,0,0,1-.69-.652,3.053,3.053,0,0,1-.437-.892,3.271,3.271,0,0,1-.152-.962,3.135,3.135,0,0,1,.158-.968,2.956,2.956,0,0,1,.463-.886,2.523,2.523,0,0,1,.734-.652,1.888,1.888,0,0,1,.975-.253h7.253a.608.608,0,1,1,0,1.215Zm6.874,1.114a.608.608,0,0,1-.43,1.038h-6.3a.608.608,0,1,1,0-1.215h6.3A.584.584,0,0,1,1390.89,257.888Z" transform="translate(-1248.484 -230.964)" fill="#00e26e"/>
    <path id="Caminho_83" data-name="Caminho 83" d="M1543.592,255.585a.6.6,0,0,1,.608.608.57.57,0,0,1-.165.411.622.622,0,0,1-.393.193H1541.1a1.311,1.311,0,0,0-.627.184,1.218,1.218,0,0,0-.385.385,1.478,1.478,0,0,0-.193.494,2.611,2.611,0,0,0-.051.481v2.153a.608.608,0,1,1-1.215,0v-2.148a3.161,3.161,0,0,1,.1-.791,3.022,3.022,0,0,1,.3-.753h-4.152a.608.608,0,1,1,0-1.215Z" transform="translate(-1386.616 -230.991)" fill="#00e26e"/>
    <rect id="Ret창ngulo_52" data-name="Ret창ngulo 52" width="22.395" height="0.517" transform="translate(43.901 26.969)" fill="#00e26e"/>
    <rect id="Ret창ngulo_53" data-name="Ret창ngulo 53" width="22.395" height="0.517" transform="translate(165.147 26.969)" fill="#00e26e"/>
  </g>
</svg>
