<svg xmlns="http://www.w3.org/2000/svg" width="15.637" height="16.255" viewBox="0 0 15.637 16.255">
  <g id="_3cJKAX.tif" data-name="3cJKAX.tif" transform="translate(-2259.083 -844.202)">
    <g id="Grupo_239" data-name="Grupo 239" transform="translate(2259.083 844.202)">
      <path id="Caminho_42" data-name="Caminho 42" d="M2266.9,860.456c-1.85,0-3.7,0-5.55,0a2.165,2.165,0,0,1-1.749-.748,2.015,2.015,0,0,1-.513-1.335q0-5.2,0-10.4a2.121,2.121,0,0,1,2.143-2.092c.405,0,.811-.006,1.215,0,.146,0,.2-.049.194-.2-.008-.258,0-.517,0-.776a.711.711,0,0,1,1.421-.008c.005.253.01.506,0,.758-.008.169.049.222.22.222,1.451-.006,2.9,0,4.352,0,.3,0,.6-.007.9,0,.157.005.223-.041.216-.209-.012-.252-.006-.5,0-.757a.712.712,0,1,1,1.424,0c0,.059,0,.117,0,.176.009.251.02.5.029.751.256.013.51.025.766.036a9.535,9.535,0,0,1,.966.043,2.027,2.027,0,0,1,1.61,1.241,2.2,2.2,0,0,1,.182.941q0,5.065,0,10.131a2.1,2.1,0,0,1-1.275,2.033,2.282,2.282,0,0,1-1.013.183Zm.023-7.989h-6.164c-.244,0-.246,0-.246.245v5.513a.721.721,0,0,0,.806.8q5.584,0,11.167,0a.769.769,0,0,0,.817-.821c-.015-1.826-.007-3.652-.007-5.477,0-.265,0-.266-.261-.266Zm-.02-1.433h6.132c.26,0,.26,0,.26-.265q0-1.348,0-2.7a.693.693,0,0,0-.711-.751c-.416-.017-.833-.005-1.25-.01-.122,0-.168.051-.165.17,0,.211,0,.422,0,.634a.711.711,0,0,1-1.423,0c0-.206-.006-.412,0-.617,0-.132-.039-.189-.18-.189q-2.661,0-5.322,0c-.142,0-.186.057-.18.19.006.2,0,.4,0,.6a.712.712,0,1,1-1.424,0c0-.206,0-.411,0-.616,0-.118-.043-.171-.165-.17-.411.005-.823-.005-1.234.008a.7.7,0,0,0-.728.769q0,1.338,0,2.677c0,.267,0,.267.277.267Z" transform="translate(-2259.083 -844.202)" fill="#fff"/>
    </g>
  </g>
</svg>
