<svg xmlns="http://www.w3.org/2000/svg" width="24.812" height="24.818" viewBox="0 0 24.812 24.818">
  <g id="Grupo_186" data-name="Grupo 186" transform="translate(0 0)">
    <path id="Caminho_21" data-name="Caminho 21" d="M2300.295,503.882h-3.745V496.3a1.218,1.218,0,0,0-2.436,0v7.582h-3.525v-6.041a1.218,1.218,0,1,0-2.436,0v6.041h-3.525v-2.94a1.218,1.218,0,1,0-2.436,0v2.94h-2.585a.558.558,0,0,1-.473-.193V482.718a1.218,1.218,0,1,0-2.436,0v20.971a2.783,2.783,0,0,0,2.909,2.629h20.685a1.218,1.218,0,0,0,0-2.436Z" transform="translate(-2276.701 -481.5)" fill="#6271a8"/>
    <path id="Caminho_22" data-name="Caminho 22" d="M2311.948,495.481a1.218,1.218,0,0,0,1.218-1.218V486a1.218,1.218,0,1,0-2.436,0v8.262A1.217,1.217,0,0,0,2311.948,495.481Z" transform="translate(-2293.317 -483.104)" fill="#6271a8"/>
    <path id="Caminho_23" data-name="Caminho 23" d="M2300.3,500.388a1.217,1.217,0,0,0,1.218-1.218v-7.422a1.218,1.218,0,0,0-2.436,0v7.422A1.218,1.218,0,0,0,2300.3,500.388Z" transform="translate(-2287.629 -485.909)" fill="#6271a8"/>
    <path id="Caminho_24" data-name="Caminho 24" d="M2288.653,508.948a1.218,1.218,0,0,0,1.218-1.218v-4.761a1.218,1.218,0,0,0-2.436,0v4.761A1.218,1.218,0,0,0,2288.653,508.948Z" transform="translate(-2281.942 -491.388)" fill="#6271a8"/>
  </g>
</svg>
