<svg xmlns="http://www.w3.org/2000/svg" xmlns:xlink="http://www.w3.org/1999/xlink" width="26.084" height="26.203" viewBox="0 0 26.084 26.203">
  <defs>
    <clipPath id="clip-path">
      <rect width="26.084" height="26.203" fill="none"/>
    </clipPath>
  </defs>
  <g id="Repetição_de_grade_1" data-name="Repetição de grade 1" clip-path="url(#clip-path)">
    <g id="Grupo_185" data-name="Grupo 185">
      <path id="Caminho_17" data-name="Caminho 17" d="M2298.5,384h-18.837a2.506,2.506,0,0,0-2.584,2.414v2.5h-1.024a.988.988,0,1,0,0,1.971h1.024v5.23h-1.024a.988.988,0,1,0,0,1.971h1.024v5.23h-1.024a.988.988,0,1,0,0,1.971h1.024v2.5a2.506,2.506,0,0,0,2.584,2.414H2298.5a2.506,2.506,0,0,0,2.584-2.414V386.414A2.506,2.506,0,0,0,2298.5,384Zm.474,23.789a.46.46,0,0,1-.474.443h-18.837a.46.46,0,0,1-.474-.443v-2.5h1.086a.988.988,0,1,0,0-1.971h-1.086v-5.23h1.086a.988.988,0,1,0,0-1.971h-1.086v-5.23h1.086a.988.988,0,1,0,0-1.971h-1.086v-2.5a.46.46,0,0,1,.474-.443H2298.5a.46.46,0,0,1,.474.443Z" transform="translate(-2275 -384)" fill="#6271a8"/>
      <path id="Caminho_18" data-name="Caminho 18" d="M2300.92,417.8h-8.951a1.031,1.031,0,0,0,0,2.059h8.951a1.031,1.031,0,0,0,0-2.059Z" transform="translate(-2281.654 -400.45)" fill="#6271a8"/>
      <path id="Caminho_19" data-name="Caminho 19" d="M2300.92,412.035h-8.951a1.031,1.031,0,0,0,0,2.059h8.951a1.031,1.031,0,0,0,0-2.059Z" transform="translate(-2281.654 -397.643)" fill="#6271a8"/>
      <path id="Caminho_20" data-name="Caminho 20" d="M2301.271,399.006a5.053,5.053,0,0,0-3.848-4.189v-.292a.98.98,0,1,0-1.958,0v.292a5.052,5.052,0,0,0-3.847,4.189,1.028,1.028,0,0,0-.628.96,1,1,0,0,0,.979,1.03h8.951a1,1,0,0,0,.979-1.03A1.029,1.029,0,0,0,2301.271,399.006Zm-4.827-2.233a2.964,2.964,0,0,1,2.8,2.164h-5.606A2.964,2.964,0,0,1,2296.445,396.773Z" transform="translate(-2281.654 -388.686)" fill="#6271a8"/>
    </g>
  </g>
</svg>
