<svg xmlns="http://www.w3.org/2000/svg" viewBox="0 0 694.57 678.08"><defs><style>.cls-1{fill:#fff;}</style></defs><g id="Layer_2" data-name="Layer 2"><g id="Layer_1-2" data-name="Layer 1"><path class="cls-1" d="M643.25,289a51.65,51.65,0,1,1-52,51.33A51.65,51.65,0,0,1,643.25,289Zm-272.16-1.69L52,285.32a51.65,51.65,0,0,0-.64,103.3l134.86.84a20,20,0,0,1,17,19.89A20.34,20.34,0,0,1,183,429.61L84.27,429a51.65,51.65,0,1,0-.64,103.3L358.84,534a20.08,20.08,0,0,1-.26,40.16l-17-.1A51.65,51.65,0,0,0,341,677.36l115.42.72A51.65,51.65,0,0,0,457,574.79l-16.73-.1a20.09,20.09,0,0,1,.25-40.18L613,535.59a51.65,51.65,0,0,0,.64-103.29L264.7,430.12a20.33,20.33,0,0,1-19.95-20.51A20,20,0,0,1,262,389.93l222,1.39a51.65,51.65,0,0,0,.64-103.3l-42-.26a20,20,0,0,1-14.88-19.45A20.33,20.33,0,0,1,448,248.06l165.58,1a51.65,51.65,0,0,0,.65-103.29L339,144.08a20.09,20.09,0,1,1,.25-40.17l77.25.48A51.65,51.65,0,0,0,417.12,1.1L241.44,0a51.65,51.65,0,0,0-.64,103.3l16.73.1a20.09,20.09,0,1,1-.26,40.17L84.82,142.49a51.65,51.65,0,0,0-.65,103.3l282.08,1.76a20.34,20.34,0,0,1,20,20.5A20,20,0,0,1,371.09,287.32Z"/></g></g></svg>