<svg xmlns="http://www.w3.org/2000/svg" viewBox="0 0 399.39 256.62"><defs><style>.cls-1{fill:#fff;}</style></defs><g id="Layer_2" data-name="Layer 2"><g id="Layer_1-2" data-name="Layer 1"><path class="cls-1" d="M397.09,254.6c-.13-1.87-.29-3.74-.38-5.61-.31-6.29-.2-12.63-1-18.86-.62-4.82-4-8.09-8.84-9a10.13,10.13,0,0,0-11.29,5.6,37,37,0,0,0-3.39,11.77c-.56,3.91-.08,8-.19,11.95a30.54,30.54,0,0,1-.68,4.32l-1.63,0a37,37,0,0,1-.58-4.41c-.05-5.32.08-10.64,0-16-.09-7.37-4.65-13-10.76-13.44-6.41-.47-12.38,4.45-13.23,11.65-.66,5.58-.46,11.27-.68,16.91a8.9,8.9,0,0,1-1.45,5.12c-1.54-11.54-1.11-23.07-1.06-34.6l1.23-.27,2.14,3.76c12.3-8.82,17.76-6.6,26,2.84,1.22-1.32,2.39-2.64,3.61-3.89,6.71-6.89,17.27-5.61,22.07,2.66C399.74,229.76,400.57,249.38,397.09,254.6Zm-130.87-8-3.52,3c-8.08,6.95-19.33,4.51-23.69-5.13-2-4.47-1.35-5.68,3.52-5.73,7.48-.09,15-.15,22.45,0,4.44.08,5.49-1.89,4.65-5.91-1.65-8-8.75-14.49-16.61-14.92s-15.2,5.08-17.8,13.35c-2.69,8.54.81,18.34,8.11,22.72,6.65,4,16.47,2.94,21.76-2.43a28.41,28.41,0,0,0,2.62-3.65ZM250.8,220.84c6.49-.77,14.52,5.08,15.3,11.46.12,1-1.41,3.15-2.22,3.17-8.54.24-17.08.15-25.57.15A14.54,14.54,0,0,1,250.8,220.84ZM31.93,246.93a40.05,40.05,0,0,0-3.51,2.58c-8.29,7.06-19.76,4.5-24-5.38-1.74-4.08-1-5.38,3.59-5.44,7.63-.08,15.27-.11,22.9,0,3.81,0,5.12-1.74,4.4-5.29-1.47-7.24-5.54-12.36-12.63-14.69C14.56,216,6.17,220,2.05,228.25c-4.27,8.56-1.67,19.57,5.9,25,8.22,5.92,21.13,3.06,25.21-5.79C32.49,247.17,32.07,246.84,31.93,246.93ZM6.86,235.65c-3,0-3.73-1.44-2.91-4.16,1.71-5.7,7.91-10.62,13.67-10.72s12,4.66,14,10.32c1.09,3.22.21,4.72-3.32,4.6s-7.3,0-10.94,0v0C13.82,235.64,10.34,235.63,6.86,235.65Zm166.51,13.73c-8.21,7.17-19.5,4.79-24-5.08-2-4.41-1.33-5.56,3.66-5.61,7.63-.08,15.27-.1,22.91,0,3.85.05,4.9-1.64,4.24-5.3-1.68-9.33-10.19-16.34-19-15.45-8.35.84-15.49,8.34-16.19,17-.81,10,4.66,18.59,13.24,20.86,8.27,2.18,17-1.48,18.7-9.16C175.7,247.55,174.49,248.41,173.37,249.38Zm-21.93-13.74c-3.05,0-3.61-1.52-2.69-4.21,2-5.82,8-10.56,13.66-10.66s11.67,4.38,13.93,10.25c1.22,3.2.47,4.72-3.09,4.66s-7.27,0-10.9,0h0C158.71,235.65,155.08,235.66,151.44,235.64ZM95.05,188.93v65.63l1.44.11c.21-1.63.55-3.26.61-4.89.21-6-.2-12,.62-17.86,1-6.77,7.33-11.55,13.32-11s10.36,5.91,10.58,13c.17,5.47,0,11,.11,16.43,0,1.55.63,3.09,1.14,5.4,1.08-1.26,1.66-1.62,1.65-2,0-7.78.85-15.71-.36-23.32-1.93-12.22-14-16.1-23.76-8.36-.6.48-1.31.83-3.2,2V189Zm222.48,40.93c-.4,5.26-.51,10.65-1.83,15.7a11.22,11.22,0,0,1-11.76,8.12c-5-.3-8.85-3.76-10.19-9.4a31.14,31.14,0,0,1-.73-6.39c-.1-4.48,0-9,0-13.44a57,57,0,0,0-.76-5.73c-1.09,1.55-1.61,1.94-1.6,2.33.13,8.43-.77,17.06.76,25.24,2,10.62,14.86,13.68,22.74,6.23a32.69,32.69,0,0,1,2.6-2l2,4.91c2.8-3.77,2.68-32.51-1.09-35.32C317.57,223.35,317.77,226.62,317.53,229.86Zm-254.65-24a21.51,21.51,0,0,0-.53,4.6c.53,5.37-.29,9.35-7.15,8.4-.45-.06-1,.61-2,1.26,1.3.63,2.15,1.44,2.9,1.35,5.89-.69,6.4,2.77,6.26,7.35-.22,7.12-.11,14.26,0,21.4a31.16,31.16,0,0,0,.79,4.83l1.53,0a40.35,40.35,0,0,0,.66-5c.07-7.8.13-15.6,0-23.39-.06-3.51,1.09-5.32,4.86-5.12a17.87,17.87,0,0,0,4.26-.77l-.06-1.4a12.8,12.8,0,0,0-3.52-.65c-4.57.51-5.86-1.7-5.56-5.86a50.2,50.2,0,0,0-.4-7Zm141,49.27c.2-2,.46-3.56.48-5.07.06-4,0-8,0-11.93,0-7.8,3.48-13.27,10.95-16a29.38,29.38,0,0,0,3.84-2.29c-6.74-2.43-9.7,3-14.15,4.62l-1.42-5C200.46,222.22,200.35,251.87,203.83,255.16Zm-8.05-109.48V109.61l-43.5-25.47,43.5,61.54Zm0-45.08L152,74.94l43.8-19.18V100.6Zm0-47.93L153.39,71.24,195.78,0ZM198.6,0l43,71.5-43-18.83Zm0,145.68V109.61l43.51-25.47L198.6,145.68Zm0-45.08V55.76L242.43,75Z"/></g></g></svg>