<svg xmlns="http://www.w3.org/2000/svg" viewBox="0 0 318.11 318.11"><defs><style>.cls-1{fill:#fff;}</style></defs><g id="Layer_2" data-name="Layer 2"><g id="Layer_1-2" data-name="Layer 1"><g id="xqvydc"><path class="cls-1" d="M318.11,159c.16,87.5-71,158.89-158.56,159.1C71.62,318.32.17,247.26,0,159.42S71,.13,158.57,0A159.11,159.11,0,0,1,318.11,159Zm-293.22.11C25,233.45,85,293.2,159.67,293.19c73.8,0,133.56-60.31,133.51-134.73,0-73.7-60.31-133.58-134.45-133.56C85,24.91,24.83,85.2,24.89,159.12Z"/><path class="cls-1" d="M176.92,231.79v14.89H163.49V231.57H145.75v15.12H132.21V231.4H98V220h15.2V98.29H98V86.9h34.12V71.46H145.6V86.6h17.72V71.46h13.57c0,4.37.11,8.69,0,13-.08,2.23.41,3.16,2.89,3.54a85.58,85.58,0,0,1,13.5,3.14c21,6.91,25.5,24.77,21.52,40.85-2.43,9.79-7.8,17.52-17.41,21.69-.14.06-.19.3-.44.71a11.63,11.63,0,0,0,1.84.91c22.29,6.79,27.72,27.23,22.78,45.54-3.32,12.31-11.75,20.28-23.3,24.77C191.54,228.21,184.42,229.66,176.92,231.79Zm-31-25.84c8.38,0,16.35.23,24.29-.11a34.12,34.12,0,0,0,10.24-2.32c6.39-2.35,9.93-7.19,10.74-14,1.22-10.25-3.46-17.37-13.61-19.25-6.22-1.16-12.68-1.14-19.05-1.44-4.12-.2-8.26,0-12.61,0V206Zm.15-60.76c8.36-.5,16.54-1,24.71-1.5a10.8,10.8,0,0,0,2.92-.89c7.63-2.9,11.18-8.94,10.38-17.62-.62-6.75-4.94-11.44-12.93-12.26-8.16-.85-16.44-.58-24.67-.77-.13,0-.27.21-.41.33Z"/></g></g></g></svg>